<svg xmlns="http://www.w3.org/2000/svg" xmlns:xlink="http://www.w3.org/1999/xlink" width="150" zoomAndPan="magnify" viewBox="0 0 112.5 80.999996" height="108" preserveAspectRatio="xMidYMid meet" version="1.0"><defs><clipPath id="426b90f2bf"><path d="M 0 0.179688 L 8 0.179688 L 8 43 L 0 43 Z M 0 0.179688 " clip-rule="nonzero"/></clipPath><clipPath id="53bb8ed7aa"><path d="M 46 0.179688 L 77 0.179688 L 77 43 L 46 43 Z M 46 0.179688 " clip-rule="nonzero"/></clipPath><clipPath id="cbe0dfb5b7"><path d="M 80 0.179688 L 109 0.179688 L 109 21 L 80 21 Z M 80 0.179688 " clip-rule="nonzero"/></clipPath><clipPath id="120ad100d5"><path d="M 0 46 L 7 46 L 7 80.820312 L 0 80.820312 Z M 0 46 " clip-rule="nonzero"/></clipPath><clipPath id="842d4ad107"><path d="M 9 55 L 35 55 L 35 80.820312 L 9 80.820312 Z M 9 55 " clip-rule="nonzero"/></clipPath><clipPath id="8d505db395"><path d="M 38 55 L 64 55 L 64 80.820312 L 38 80.820312 Z M 38 55 " clip-rule="nonzero"/></clipPath><clipPath id="549b911d22"><path d="M 66 55 L 83 55 L 83 80.820312 L 66 80.820312 Z M 66 55 " clip-rule="nonzero"/></clipPath><clipPath id="6dc7eb58eb"><path d="M 85 55 L 111.253906 55 L 111.253906 80.820312 L 85 80.820312 Z M 85 55 " clip-rule="nonzero"/></clipPath><clipPath id="7835bb7814"><path d="M 97 9 L 111.253906 9 L 111.253906 31 L 97 31 Z M 97 9 " clip-rule="nonzero"/></clipPath><clipPath id="310addccb4"><path d="M 0 0.179688 L 8 0.179688 L 8 43 L 0 43 Z M 0 0.179688 " clip-rule="nonzero"/></clipPath><clipPath id="98375ba4e3"><path d="M 46 0.179688 L 77 0.179688 L 77 43 L 46 43 Z M 46 0.179688 " clip-rule="nonzero"/></clipPath><clipPath id="ab8e89c1a5"><path d="M 80 0.179688 L 109 0.179688 L 109 21 L 80 21 Z M 80 0.179688 " clip-rule="nonzero"/></clipPath><clipPath id="29a38f4a08"><path d="M 0 46 L 7 46 L 7 80.820312 L 0 80.820312 Z M 0 46 " clip-rule="nonzero"/></clipPath><clipPath id="55ec5dbf26"><path d="M 9 55 L 35 55 L 35 80.820312 L 9 80.820312 Z M 9 55 " clip-rule="nonzero"/></clipPath><clipPath id="13f84da032"><path d="M 38 55 L 64 55 L 64 80.820312 L 38 80.820312 Z M 38 55 " clip-rule="nonzero"/></clipPath><clipPath id="981a7f6679"><path d="M 66 55 L 83 55 L 83 80.820312 L 66 80.820312 Z M 66 55 " clip-rule="nonzero"/></clipPath><clipPath id="23efe13209"><path d="M 85 55 L 111.253906 55 L 111.253906 80.820312 L 85 80.820312 Z M 85 55 " clip-rule="nonzero"/></clipPath><clipPath id="7a40881fd8"><path d="M 97 9 L 111.253906 9 L 111.253906 31 L 97 31 Z M 97 9 " clip-rule="nonzero"/></clipPath></defs><g clip-path="url(#426b90f2bf)"><path fill="#ffffff" d="M 7.679688 0.179688 L 0 0.179688 L 0 34.472656 C 0 38.726562 3.128906 42.09375 7.679688 42.09375 Z M 7.679688 0.179688 " fill-opacity="1" fill-rule="nonzero"/></g><path fill="#ffffff" d="M 26.878906 42.09375 C 18.398438 42.09375 11.519531 35.269531 11.519531 26.851562 C 11.519531 18.433594 18.398438 11.609375 26.878906 11.609375 C 29.679688 11.609375 32.300781 12.351562 34.558594 13.648438 L 34.558594 12.046875 L 42.214844 12.046875 L 42.214844 42.09375 L 36.671875 42.09375 C 35.609375 42.09375 34.457031 41.476562 34.558594 40.425781 L 34.558594 40.054688 C 31.796875 41.515625 30.082031 41.992188 26.878906 42.09375 Z M 26.878906 34.140625 C 30.9375 34.140625 34.226562 30.875 34.226562 26.851562 C 34.226562 22.824219 30.9375 19.5625 26.878906 19.5625 C 22.824219 19.5625 19.535156 22.824219 19.535156 26.851562 C 19.535156 30.875 22.824219 34.140625 26.878906 34.140625 Z M 26.878906 34.140625 " fill-opacity="1" fill-rule="evenodd"/><g clip-path="url(#53bb8ed7aa)"><path fill="#ffffff" d="M 53.761719 0.179688 L 46.082031 0.179688 L 46.082031 34.480469 C 46.082031 38.617188 49.308594 42.09375 53.761719 42.09375 L 53.761719 40.097656 C 55.066406 40.753906 56.125 41.210938 57.214844 41.523438 C 57.523438 41.605469 57.835938 41.683594 58.148438 41.75 C 59.109375 41.945312 60.148438 42.050781 61.441406 42.09375 C 69.921875 42.09375 76.800781 35.421875 76.800781 27.191406 C 76.800781 18.960938 69.921875 12.289062 61.441406 12.289062 C 60.675781 12.304688 59.996094 12.347656 59.367188 12.421875 C 58.695312 12.511719 58.035156 12.640625 57.394531 12.808594 C 56.273438 13.121094 55.160156 13.59375 53.761719 14.28125 Z M 61.441406 34.316406 C 65.496094 34.316406 68.785156 31.125 68.785156 27.191406 C 68.785156 23.253906 65.496094 20.0625 61.441406 20.0625 C 57.382812 20.0625 54.09375 23.253906 54.09375 27.191406 C 54.09375 31.125 57.382812 34.316406 61.441406 34.316406 Z M 61.441406 34.316406 " fill-opacity="1" fill-rule="evenodd"/></g><g clip-path="url(#cbe0dfb5b7)"><path fill="#4c98cd" d="M 108.886719 8.492188 C 107.03125 4.261719 102.054688 0.179688 95.339844 0.179688 C 87.085938 0.0703125 80.480469 7.0625 80.820312 14.246094 L 90.566406 14.246094 C 90.367188 8.8125 99.863281 7.621094 100.164062 14.246094 L 100.296875 20.417969 C 101.46875 13.375 103.066406 10.453125 108.886719 8.492188 Z M 108.886719 8.492188 " fill-opacity="1" fill-rule="evenodd"/></g><path fill="#4c98cd" d="M 95.628906 32.707031 L 90.566406 32.746094 L 87.25 35.949219 C 89.660156 38.808594 93.042969 37.285156 95.628906 32.707031 Z M 95.628906 32.707031 " fill-opacity="1" fill-rule="nonzero"/><path fill="#4c98cd" d="M 108.960938 42.09375 L 108.960938 32.746094 L 100.074219 32.746094 C 94.347656 43.4375 86.808594 41.910156 85.78125 37.1875 L 84.0625 38.800781 C 84.058594 38.808594 84.058594 38.808594 84.058594 38.808594 L 84.058594 38.800781 L 82.859375 39.953125 L 80.640625 42.09375 Z M 108.960938 42.09375 " fill-opacity="1" fill-rule="evenodd"/><path fill="#4c98cd" d="M 100.792969 25.550781 L 103.089844 26.535156 C 102.722656 27.378906 100.167969 31.246094 99.171875 32.746094 C 98.925781 33.117188 98.773438 33.34375 98.773438 33.34375 C 98.773438 33.34375 97.304688 35.914062 94.917969 38.214844 C 92.53125 40.515625 88.519531 40.605469 87.117188 38.746094 C 86.59375 38.050781 86.429688 37.511719 86.390625 36.78125 C 86.371094 36.496094 86.375 36.1875 86.382812 35.824219 C 86.453125 34.761719 86.84375 33.167969 86.84375 33.167969 L 87.300781 31.660156 L 86.84375 34.320312 C 86.84375 34.320312 86.703125 35.410156 86.84375 36.089844 C 86.859375 36.160156 86.875 36.226562 86.894531 36.292969 C 87.589844 38.722656 91.3125 38.273438 92.804688 37.152344 C 93.984375 36.265625 95.558594 34.140625 95.558594 34.140625 C 95.558594 34.140625 95.980469 33.546875 96.527344 32.746094 C 97.15625 31.832031 97.957031 30.652344 98.496094 29.800781 C 99.507812 28.207031 100.792969 25.550781 100.792969 25.550781 Z M 100.792969 25.550781 " fill-opacity="1" fill-rule="nonzero"/><g clip-path="url(#120ad100d5)"><path fill="#ffffff" d="M 6.238281 46.105469 L 0 46.105469 L 0 74.164062 C 0 77.644531 2.542969 80.398438 6.238281 80.398438 Z M 6.238281 46.105469 " fill-opacity="1" fill-rule="nonzero"/></g><g clip-path="url(#842d4ad107)"><path fill="#ffffff" d="M 22.328125 80.820312 C 26.492188 80.820312 30.191406 78.855469 32.527344 75.808594 L 26.332031 72.757812 C 25.261719 73.679688 23.859375 74.234375 22.328125 74.234375 C 20.691406 74.234375 19.207031 73.601562 18.109375 72.570312 L 28.390625 68.96875 L 32.046875 67.558594 C 33.769531 66.894531 34.863281 65.109375 34.160156 63.414062 C 32.25 58.816406 27.671875 55.578125 22.328125 55.578125 C 15.269531 55.578125 9.546875 61.226562 9.546875 68.199219 C 9.546875 75.167969 15.269531 80.820312 22.328125 80.820312 Z M 25.460938 63.015625 L 16.75 65.726562 C 17.707031 63.625 19.84375 62.164062 22.328125 62.164062 C 23.472656 62.164062 24.546875 62.472656 25.460938 63.015625 Z M 25.460938 63.015625 " fill-opacity="1" fill-rule="evenodd"/></g><g clip-path="url(#8d505db395)"><path fill="#ffffff" d="M 50.902344 80.820312 C 43.875 80.820312 38.179688 75.167969 38.179688 68.199219 C 38.179688 61.226562 43.875 55.578125 50.902344 55.578125 C 53.21875 55.578125 55.390625 56.191406 57.261719 57.265625 L 57.261719 55.941406 L 63.601562 55.941406 L 63.601562 80.820312 L 59.007812 80.820312 C 58.128906 80.820312 57.175781 80.308594 57.261719 79.441406 L 57.261719 79.132812 C 54.972656 80.34375 53.550781 80.738281 50.902344 80.820312 Z M 50.902344 74.234375 C 54.261719 74.234375 56.984375 71.53125 56.984375 68.199219 C 56.984375 64.863281 54.261719 62.164062 50.902344 62.164062 C 47.539062 62.164062 44.816406 64.863281 44.816406 68.199219 C 44.816406 71.53125 47.539062 74.234375 50.902344 74.234375 Z M 50.902344 74.234375 " fill-opacity="1" fill-rule="evenodd"/></g><g clip-path="url(#549b911d22)"><path fill="#ffffff" d="M 66.886719 55.910156 L 73.222656 55.910156 L 73.222656 59.125 C 76.164062 56.035156 79.792969 54.46875 82.726562 56.453125 L 82.726562 62.046875 C 78.226562 60.601562 76.269531 61.898438 73.222656 64.648438 L 73.222656 76.277344 C 73.222656 78.804688 70.59375 80.8125 66.886719 80.8125 Z M 66.886719 55.910156 " fill-opacity="1" fill-rule="nonzero"/></g><g clip-path="url(#6dc7eb58eb)"><path fill="#ffffff" d="M 100.125 55.578125 C 106.734375 55.578125 111.347656 61.226562 111.347656 68.199219 L 111.347656 80.820312 C 107.800781 80.820312 104.613281 78.84375 104.613281 76.285156 L 104.613281 68.59375 C 104.613281 65.257812 101.15625 63.070312 97.992188 63.070312 C 94.832031 63.070312 92.265625 65.0625 92.265625 68.394531 L 92.265625 80.820312 C 88.71875 80.820312 85.90625 78.792969 85.90625 76.230469 L 85.90625 55.578125 L 92.265625 55.578125 L 92.265625 59.324219 C 94.109375 56.925781 96.554688 55.578125 100.125 55.578125 Z M 100.125 55.578125 " fill-opacity="1" fill-rule="nonzero"/></g><g clip-path="url(#7835bb7814)"><path fill="#4c98cd" d="M 111.183594 11.960938 C 110.636719 9.457031 109.933594 9.074219 109.933594 9.074219 C 109.933594 9.074219 109.710938 9.003906 109.144531 9.132812 C 108.65625 9.246094 107.917969 9.511719 106.84375 10.101562 C 104.390625 11.449219 103.335938 13.585938 102.625 15.0625 C 102.070312 16.21875 101.425781 18.160156 100.988281 20.207031 L 100.992188 20.171875 C 100.992188 20.171875 100.699219 20.253906 100.296875 20.417969 C 99.550781 20.714844 98.429688 21.277344 98.050781 22.082031 C 97.421875 23.425781 97.050781 24.925781 97.042969 26.882812 C 97.039062 27.929688 97.625 26.640625 98.039062 25.855469 C 98.769531 24.480469 99.324219 24.300781 100.472656 24.152344 L 102.460938 24.996094 L 104.441406 25.855469 C 105.085938 26.773438 105.316406 27.289062 104.730469 28.722656 C 104.394531 29.542969 103.777344 30.816406 104.589844 30.121094 C 106.113281 28.8125 107.039062 27.550781 107.667969 26.207031 C 108.179688 25.117188 107.441406 23.355469 107.25 22.929688 L 107.207031 22.835938 C 108.554688 21.09375 109.175781 20.09375 110.109375 18.273438 C 110.792969 16.785156 111.761719 14.609375 111.183594 11.960938 Z M 104.441406 15.964844 C 104.890625 15.003906 106.070312 14.574219 107.074219 15.003906 C 107.503906 15.191406 107.832031 15.503906 108.035156 15.878906 C 108.300781 16.375 108.335938 16.980469 108.078125 17.53125 C 107.628906 18.496094 106.449219 18.925781 105.441406 18.492188 C 105.433594 18.488281 105.421875 18.484375 105.414062 18.480469 C 104.429688 18.039062 103.992188 16.921875 104.441406 15.964844 Z M 104.441406 15.964844 " fill-opacity="1" fill-rule="evenodd"/></g><g clip-path="url(#310addccb4)"><path fill="#ffffff" d="M 7.679688 0.179688 L 0 0.179688 L 0 34.472656 C 0 38.726562 3.128906 42.09375 7.679688 42.09375 Z M 7.679688 0.179688 " fill-opacity="1" fill-rule="nonzero"/></g><path fill="#ffffff" d="M 26.878906 42.09375 C 18.398438 42.09375 11.519531 35.269531 11.519531 26.851562 C 11.519531 18.433594 18.398438 11.609375 26.878906 11.609375 C 29.679688 11.609375 32.300781 12.351562 34.558594 13.648438 L 34.558594 12.046875 L 42.214844 12.046875 L 42.214844 42.09375 L 36.671875 42.09375 C 35.609375 42.09375 34.457031 41.476562 34.558594 40.425781 L 34.558594 40.054688 C 31.796875 41.515625 30.082031 41.992188 26.878906 42.09375 Z M 26.878906 34.140625 C 30.9375 34.140625 34.226562 30.875 34.226562 26.851562 C 34.226562 22.824219 30.9375 19.5625 26.878906 19.5625 C 22.824219 19.5625 19.535156 22.824219 19.535156 26.851562 C 19.535156 30.875 22.824219 34.140625 26.878906 34.140625 Z M 26.878906 34.140625 " fill-opacity="1" fill-rule="evenodd"/><g clip-path="url(#98375ba4e3)"><path fill="#ffffff" d="M 53.761719 0.179688 L 46.082031 0.179688 L 46.082031 34.480469 C 46.082031 38.617188 49.308594 42.09375 53.761719 42.09375 L 53.761719 40.097656 C 55.066406 40.753906 56.125 41.210938 57.214844 41.523438 C 57.523438 41.605469 57.835938 41.683594 58.148438 41.75 C 59.109375 41.945312 60.148438 42.050781 61.441406 42.09375 C 69.921875 42.09375 76.800781 35.421875 76.800781 27.191406 C 76.800781 18.960938 69.921875 12.289062 61.441406 12.289062 C 60.675781 12.304688 59.996094 12.347656 59.367188 12.421875 C 58.695312 12.511719 58.035156 12.640625 57.394531 12.808594 C 56.273438 13.121094 55.160156 13.59375 53.761719 14.28125 Z M 61.441406 34.316406 C 65.496094 34.316406 68.785156 31.125 68.785156 27.191406 C 68.785156 23.253906 65.496094 20.0625 61.441406 20.0625 C 57.382812 20.0625 54.09375 23.253906 54.09375 27.191406 C 54.09375 31.125 57.382812 34.316406 61.441406 34.316406 Z M 61.441406 34.316406 " fill-opacity="1" fill-rule="evenodd"/></g><g clip-path="url(#ab8e89c1a5)"><path fill="#4c98cd" d="M 108.886719 8.492188 C 107.03125 4.261719 102.054688 0.179688 95.339844 0.179688 C 87.085938 0.0703125 80.480469 7.0625 80.820312 14.246094 L 90.566406 14.246094 C 90.367188 8.8125 99.863281 7.621094 100.164062 14.246094 L 100.296875 20.417969 C 101.46875 13.375 103.066406 10.453125 108.886719 8.492188 Z M 108.886719 8.492188 " fill-opacity="1" fill-rule="evenodd"/></g><path fill="#4c98cd" d="M 95.628906 32.707031 L 90.566406 32.746094 L 87.25 35.949219 C 89.660156 38.808594 93.042969 37.285156 95.628906 32.707031 Z M 95.628906 32.707031 " fill-opacity="1" fill-rule="nonzero"/><path fill="#4c98cd" d="M 108.960938 42.09375 L 108.960938 32.746094 L 100.074219 32.746094 C 94.347656 43.4375 86.808594 41.910156 85.78125 37.1875 L 84.0625 38.800781 C 84.058594 38.808594 84.058594 38.808594 84.058594 38.808594 L 84.058594 38.800781 L 82.859375 39.953125 L 80.640625 42.09375 Z M 108.960938 42.09375 " fill-opacity="1" fill-rule="evenodd"/><path fill="#4c98cd" d="M 100.792969 25.550781 L 103.089844 26.535156 C 102.722656 27.378906 100.167969 31.246094 99.171875 32.746094 C 98.925781 33.117188 98.773438 33.34375 98.773438 33.34375 C 98.773438 33.34375 97.304688 35.914062 94.917969 38.214844 C 92.53125 40.515625 88.519531 40.605469 87.117188 38.746094 C 86.59375 38.050781 86.429688 37.511719 86.390625 36.78125 C 86.371094 36.496094 86.375 36.1875 86.382812 35.824219 C 86.453125 34.761719 86.84375 33.167969 86.84375 33.167969 L 87.300781 31.660156 L 86.84375 34.320312 C 86.84375 34.320312 86.703125 35.410156 86.84375 36.089844 C 86.859375 36.160156 86.875 36.226562 86.894531 36.292969 C 87.589844 38.722656 91.3125 38.273438 92.804688 37.152344 C 93.984375 36.265625 95.558594 34.140625 95.558594 34.140625 C 95.558594 34.140625 95.980469 33.546875 96.527344 32.746094 C 97.15625 31.832031 97.957031 30.652344 98.496094 29.800781 C 99.507812 28.207031 100.792969 25.550781 100.792969 25.550781 Z M 100.792969 25.550781 " fill-opacity="1" fill-rule="nonzero"/><g clip-path="url(#29a38f4a08)"><path fill="#ffffff" d="M 6.238281 46.105469 L 0 46.105469 L 0 74.164062 C 0 77.644531 2.542969 80.398438 6.238281 80.398438 Z M 6.238281 46.105469 " fill-opacity="1" fill-rule="nonzero"/></g><g clip-path="url(#55ec5dbf26)"><path fill="#ffffff" d="M 22.328125 80.820312 C 26.492188 80.820312 30.191406 78.855469 32.527344 75.808594 L 26.332031 72.757812 C 25.261719 73.679688 23.859375 74.234375 22.328125 74.234375 C 20.691406 74.234375 19.207031 73.601562 18.109375 72.570312 L 28.390625 68.96875 L 32.046875 67.558594 C 33.769531 66.894531 34.863281 65.109375 34.160156 63.414062 C 32.25 58.816406 27.671875 55.578125 22.328125 55.578125 C 15.269531 55.578125 9.546875 61.226562 9.546875 68.199219 C 9.546875 75.167969 15.269531 80.820312 22.328125 80.820312 Z M 25.460938 63.015625 L 16.75 65.726562 C 17.707031 63.625 19.84375 62.164062 22.328125 62.164062 C 23.472656 62.164062 24.546875 62.472656 25.460938 63.015625 Z M 25.460938 63.015625 " fill-opacity="1" fill-rule="evenodd"/></g><g clip-path="url(#13f84da032)"><path fill="#ffffff" d="M 50.902344 80.820312 C 43.875 80.820312 38.179688 75.167969 38.179688 68.199219 C 38.179688 61.226562 43.875 55.578125 50.902344 55.578125 C 53.21875 55.578125 55.390625 56.191406 57.261719 57.265625 L 57.261719 55.941406 L 63.601562 55.941406 L 63.601562 80.820312 L 59.007812 80.820312 C 58.128906 80.820312 57.175781 80.308594 57.261719 79.441406 L 57.261719 79.132812 C 54.972656 80.34375 53.550781 80.738281 50.902344 80.820312 Z M 50.902344 74.234375 C 54.261719 74.234375 56.984375 71.53125 56.984375 68.199219 C 56.984375 64.863281 54.261719 62.164062 50.902344 62.164062 C 47.539062 62.164062 44.816406 64.863281 44.816406 68.199219 C 44.816406 71.53125 47.539062 74.234375 50.902344 74.234375 Z M 50.902344 74.234375 " fill-opacity="1" fill-rule="evenodd"/></g><g clip-path="url(#981a7f6679)"><path fill="#ffffff" d="M 66.886719 55.910156 L 73.222656 55.910156 L 73.222656 59.125 C 76.164062 56.035156 79.792969 54.46875 82.726562 56.453125 L 82.726562 62.046875 C 78.226562 60.601562 76.269531 61.898438 73.222656 64.648438 L 73.222656 76.277344 C 73.222656 78.804688 70.59375 80.8125 66.886719 80.8125 Z M 66.886719 55.910156 " fill-opacity="1" fill-rule="nonzero"/></g><g clip-path="url(#23efe13209)"><path fill="#ffffff" d="M 100.125 55.578125 C 106.734375 55.578125 111.347656 61.226562 111.347656 68.199219 L 111.347656 80.820312 C 107.800781 80.820312 104.613281 78.84375 104.613281 76.285156 L 104.613281 68.59375 C 104.613281 65.257812 101.15625 63.070312 97.992188 63.070312 C 94.832031 63.070312 92.265625 65.0625 92.265625 68.394531 L 92.265625 80.820312 C 88.71875 80.820312 85.90625 78.792969 85.90625 76.230469 L 85.90625 55.578125 L 92.265625 55.578125 L 92.265625 59.324219 C 94.109375 56.925781 96.554688 55.578125 100.125 55.578125 Z M 100.125 55.578125 " fill-opacity="1" fill-rule="nonzero"/></g><g clip-path="url(#7a40881fd8)"><path fill="#4c98cd" d="M 111.183594 11.960938 C 110.636719 9.457031 109.933594 9.074219 109.933594 9.074219 C 109.933594 9.074219 109.710938 9.003906 109.144531 9.132812 C 108.65625 9.246094 107.917969 9.511719 106.84375 10.101562 C 104.390625 11.449219 103.335938 13.585938 102.625 15.0625 C 102.070312 16.21875 101.425781 18.160156 100.988281 20.207031 L 100.992188 20.171875 C 100.992188 20.171875 100.699219 20.253906 100.296875 20.417969 C 99.550781 20.714844 98.429688 21.277344 98.050781 22.082031 C 97.421875 23.425781 97.050781 24.925781 97.042969 26.882812 C 97.039062 27.929688 97.625 26.640625 98.039062 25.855469 C 98.769531 24.480469 99.324219 24.300781 100.472656 24.152344 L 102.460938 24.996094 L 104.441406 25.855469 C 105.085938 26.773438 105.316406 27.289062 104.730469 28.722656 C 104.394531 29.542969 103.777344 30.816406 104.589844 30.121094 C 106.113281 28.8125 107.039062 27.550781 107.667969 26.207031 C 108.179688 25.117188 107.441406 23.355469 107.25 22.929688 L 107.207031 22.835938 C 108.554688 21.09375 109.175781 20.09375 110.109375 18.273438 C 110.792969 16.785156 111.761719 14.609375 111.183594 11.960938 Z M 104.441406 15.964844 C 104.890625 15.003906 106.070312 14.574219 107.074219 15.003906 C 107.503906 15.191406 107.832031 15.503906 108.035156 15.878906 C 108.300781 16.375 108.335938 16.980469 108.078125 17.53125 C 107.628906 18.496094 106.449219 18.925781 105.441406 18.492188 C 105.433594 18.488281 105.421875 18.484375 105.414062 18.480469 C 104.429688 18.039062 103.992188 16.921875 104.441406 15.964844 Z M 104.441406 15.964844 " fill-opacity="1" fill-rule="evenodd"/></g></svg>