<svg xmlns="http://www.w3.org/2000/svg" xmlns:xlink="http://www.w3.org/1999/xlink" width="160" zoomAndPan="magnify" viewBox="0 0 120 20.25" height="27" preserveAspectRatio="xMidYMid meet" version="1.0"><defs><clipPath id="416e771d6f"><path d="M 2.160156 0 L 6 0 L 6 19.527344 L 2.160156 19.527344 Z M 2.160156 0 " clip-rule="nonzero"/></clipPath><clipPath id="af33b16e22"><path d="M 7 5 L 22 5 L 22 19.527344 L 7 19.527344 Z M 7 5 " clip-rule="nonzero"/></clipPath><clipPath id="11bc7aa4b8"><path d="M 23 0 L 38 0 L 38 19.527344 L 23 19.527344 Z M 23 0 " clip-rule="nonzero"/></clipPath><clipPath id="41a3a5dbe7"><path d="M 55 0 L 59 0 L 59 19.527344 L 55 19.527344 Z M 55 0 " clip-rule="nonzero"/></clipPath><clipPath id="91335321e4"><path d="M 60 5 L 75 5 L 75 19.527344 L 60 19.527344 Z M 60 5 " clip-rule="nonzero"/></clipPath><clipPath id="de927b24bc"><path d="M 76 5 L 91 5 L 91 19.527344 L 76 19.527344 Z M 76 5 " clip-rule="nonzero"/></clipPath><clipPath id="d6b738cdd0"><path d="M 92 5 L 102 5 L 102 19.527344 L 92 19.527344 Z M 92 5 " clip-rule="nonzero"/></clipPath><clipPath id="1b6780d87f"><path d="M 102 5 L 117.117188 5 L 117.117188 19.527344 L 102 19.527344 Z M 102 5 " clip-rule="nonzero"/></clipPath><clipPath id="3c1a382ff8"><path d="M 39 15 L 53 15 L 53 19.527344 L 39 19.527344 Z M 39 15 " clip-rule="nonzero"/></clipPath><clipPath id="920af1a354"><path d="M 2.160156 0 L 6 0 L 6 19.527344 L 2.160156 19.527344 Z M 2.160156 0 " clip-rule="nonzero"/></clipPath><clipPath id="5175505ac8"><path d="M 7 5 L 22 5 L 22 19.527344 L 7 19.527344 Z M 7 5 " clip-rule="nonzero"/></clipPath><clipPath id="775a8b81c7"><path d="M 23 0 L 38 0 L 38 19.527344 L 23 19.527344 Z M 23 0 " clip-rule="nonzero"/></clipPath><clipPath id="a5bdeb8411"><path d="M 55 0 L 59 0 L 59 19.527344 L 55 19.527344 Z M 55 0 " clip-rule="nonzero"/></clipPath><clipPath id="d01e4473a4"><path d="M 60 5 L 75 5 L 75 19.527344 L 60 19.527344 Z M 60 5 " clip-rule="nonzero"/></clipPath><clipPath id="15ed4e8b43"><path d="M 76 5 L 91 5 L 91 19.527344 L 76 19.527344 Z M 76 5 " clip-rule="nonzero"/></clipPath><clipPath id="0b9186a38e"><path d="M 92 5 L 102 5 L 102 19.527344 L 92 19.527344 Z M 92 5 " clip-rule="nonzero"/></clipPath><clipPath id="75e738a34d"><path d="M 102 5 L 117.117188 5 L 117.117188 19.527344 L 102 19.527344 Z M 102 5 " clip-rule="nonzero"/></clipPath><clipPath id="289bc33fd0"><path d="M 39 15 L 53 15 L 53 19.527344 L 39 19.527344 Z M 39 15 " clip-rule="nonzero"/></clipPath></defs><g clip-path="url(#416e771d6f)"><path fill="#ffffff" d="M 5.695312 0 L 2.160156 0 L 2.160156 15.976562 C 2.160156 17.957031 3.601562 19.527344 5.695312 19.527344 Z M 5.695312 0 " fill-opacity="1" fill-rule="nonzero"/></g><g clip-path="url(#af33b16e22)"><path fill="#ffffff" d="M 14.546875 19.527344 C 10.636719 19.527344 7.464844 16.347656 7.464844 12.425781 C 7.464844 8.503906 10.636719 5.324219 14.546875 5.324219 C 15.835938 5.324219 17.042969 5.671875 18.085938 6.277344 L 18.085938 5.53125 L 21.613281 5.53125 L 21.613281 19.527344 L 19.058594 19.527344 C 18.570312 19.527344 18.039062 19.238281 18.085938 18.75 L 18.085938 18.578125 C 16.8125 19.257812 16.019531 19.480469 14.546875 19.527344 Z M 14.546875 15.820312 C 16.414062 15.820312 17.929688 14.300781 17.929688 12.425781 C 17.929688 10.550781 16.414062 9.03125 14.546875 9.03125 C 12.675781 9.03125 11.160156 10.550781 11.160156 12.425781 C 11.160156 14.300781 12.675781 15.820312 14.546875 15.820312 Z M 14.546875 15.820312 " fill-opacity="1" fill-rule="evenodd"/></g><g clip-path="url(#11bc7aa4b8)"><path fill="#ffffff" d="M 26.917969 0 L 23.382812 0 L 23.382812 15.980469 C 23.382812 17.90625 24.871094 19.527344 26.917969 19.527344 L 26.917969 18.597656 C 27.519531 18.902344 28.007812 19.117188 28.511719 19.261719 C 28.652344 19.300781 28.796875 19.335938 28.941406 19.367188 C 29.382812 19.457031 29.863281 19.507812 30.457031 19.527344 C 34.363281 19.527344 37.53125 16.417969 37.53125 12.582031 C 37.53125 8.75 34.363281 5.640625 30.457031 5.640625 C 30.105469 5.648438 29.792969 5.667969 29.5 5.703125 C 29.191406 5.746094 28.890625 5.804688 28.59375 5.882812 C 28.078125 6.03125 27.566406 6.25 26.917969 6.570312 Z M 30.457031 15.90625 C 32.324219 15.90625 33.839844 14.417969 33.839844 12.582031 C 33.839844 10.75 32.324219 9.261719 30.457031 9.261719 C 28.589844 9.261719 27.074219 10.75 27.074219 12.582031 C 27.074219 14.417969 28.589844 15.90625 30.457031 15.90625 Z M 30.457031 15.90625 " fill-opacity="1" fill-rule="evenodd"/></g><g clip-path="url(#41a3a5dbe7)"><path fill="#ffffff" d="M 58.753906 0 L 55.21875 0 L 55.21875 15.976562 C 55.21875 17.957031 56.65625 19.527344 58.753906 19.527344 Z M 58.753906 0 " fill-opacity="1" fill-rule="nonzero"/></g><g clip-path="url(#91335321e4)"><path fill="#ffffff" d="M 67.804688 19.527344 C 70.179688 19.527344 72.285156 18.421875 73.617188 16.707031 L 70.089844 14.992188 C 69.476562 15.507812 68.679688 15.820312 67.804688 15.820312 C 66.875 15.820312 66.027344 15.464844 65.402344 14.886719 L 71.261719 12.859375 L 73.34375 12.066406 C 74.324219 11.691406 74.949219 10.6875 74.546875 9.734375 C 73.460938 7.148438 70.851562 5.324219 67.804688 5.324219 C 63.785156 5.324219 60.523438 8.503906 60.523438 12.425781 C 60.523438 16.347656 63.785156 19.527344 67.804688 19.527344 Z M 69.59375 9.511719 L 64.628906 11.035156 C 65.171875 9.851562 66.390625 9.03125 67.804688 9.03125 C 68.460938 9.03125 69.070312 9.207031 69.59375 9.511719 Z M 69.59375 9.511719 " fill-opacity="1" fill-rule="evenodd"/></g><g clip-path="url(#de927b24bc)"><path fill="#ffffff" d="M 83.519531 19.527344 C 79.609375 19.527344 76.441406 16.347656 76.441406 12.425781 C 76.441406 8.503906 79.609375 5.324219 83.519531 5.324219 C 84.808594 5.324219 86.019531 5.671875 87.058594 6.277344 L 87.058594 5.53125 L 90.589844 5.53125 L 90.589844 19.527344 L 88.035156 19.527344 C 87.542969 19.527344 87.011719 19.238281 87.058594 18.75 L 87.058594 18.578125 C 85.789062 19.257812 84.996094 19.480469 83.519531 19.527344 Z M 83.519531 15.820312 C 85.390625 15.820312 86.90625 14.300781 86.90625 12.425781 C 86.90625 10.550781 85.390625 9.03125 83.519531 9.03125 C 81.648438 9.03125 80.132812 10.550781 80.132812 12.425781 C 80.132812 14.300781 81.648438 15.820312 83.519531 15.820312 Z M 83.519531 15.820312 " fill-opacity="1" fill-rule="evenodd"/></g><g clip-path="url(#d6b738cdd0)"><path fill="#ffffff" d="M 92.355469 5.511719 L 95.894531 5.511719 L 95.894531 7.320312 C 97.535156 5.582031 99.5625 4.703125 101.199219 5.816406 L 101.199219 8.964844 C 98.6875 8.152344 97.59375 8.882812 95.894531 10.425781 L 95.894531 16.972656 C 95.894531 18.394531 94.425781 19.523438 92.355469 19.523438 Z M 92.355469 5.511719 " fill-opacity="1" fill-rule="nonzero"/></g><g clip-path="url(#1b6780d87f)"><path fill="#ffffff" d="M 110.875 5.324219 C 114.550781 5.324219 117.117188 8.503906 117.117188 12.425781 L 117.117188 19.527344 C 115.144531 19.527344 113.371094 18.414062 113.371094 16.976562 L 113.371094 12.648438 C 113.371094 10.773438 111.449219 9.542969 109.691406 9.542969 C 107.933594 9.542969 106.507812 10.660156 106.507812 12.535156 L 106.507812 19.527344 C 104.53125 19.527344 102.96875 18.386719 102.96875 16.945312 L 102.96875 5.324219 L 106.507812 5.324219 L 106.507812 7.433594 C 107.53125 6.085938 108.890625 5.324219 110.875 5.324219 Z M 110.875 5.324219 " fill-opacity="1" fill-rule="nonzero"/></g><path fill="#4c98cd" d="M 52.308594 3.871094 C 51.453125 1.902344 49.160156 0 46.070312 0 C 42.265625 -0.0507812 39.226562 3.207031 39.382812 6.554688 L 43.871094 6.554688 C 43.777344 4.019531 48.152344 3.464844 48.289062 6.554688 L 48.351562 9.429688 C 48.894531 6.148438 49.628906 4.785156 52.308594 3.871094 Z M 52.308594 3.871094 " fill-opacity="1" fill-rule="evenodd"/><path fill="#4c98cd" d="M 46.203125 15.152344 L 43.871094 15.171875 L 42.34375 16.664062 C 43.453125 17.996094 45.011719 17.285156 46.203125 15.152344 Z M 46.203125 15.152344 " fill-opacity="1" fill-rule="nonzero"/><g clip-path="url(#3c1a382ff8)"><path fill="#4c98cd" d="M 52.34375 19.527344 L 52.34375 15.171875 L 48.25 15.171875 C 45.613281 20.152344 42.140625 19.441406 41.667969 17.242188 L 40.875 17.992188 C 40.875 17.996094 40.875 17.996094 40.875 17.996094 L 40.875 17.992188 L 40.320312 18.53125 L 39.300781 19.527344 Z M 52.34375 19.527344 " fill-opacity="1" fill-rule="evenodd"/></g><path fill="#4c98cd" d="M 48.582031 11.820312 L 49.640625 12.277344 C 49.46875 12.671875 48.292969 14.472656 47.835938 15.171875 C 47.722656 15.347656 47.652344 15.453125 47.652344 15.453125 C 47.652344 15.453125 46.972656 16.648438 45.875 17.71875 C 44.773438 18.792969 42.929688 18.835938 42.285156 17.96875 C 42.042969 17.644531 41.964844 17.394531 41.945312 17.050781 C 41.941406 16.921875 41.941406 16.773438 41.945312 16.605469 C 41.976562 16.113281 42.15625 15.367188 42.15625 15.367188 L 42.367188 14.667969 L 42.15625 15.90625 C 42.15625 15.90625 42.09375 16.414062 42.15625 16.730469 C 42.164062 16.761719 42.171875 16.792969 42.179688 16.824219 C 42.5 17.957031 44.214844 17.746094 44.902344 17.226562 C 45.445312 16.8125 46.171875 15.824219 46.171875 15.824219 C 46.171875 15.824219 46.363281 15.542969 46.617188 15.171875 C 46.90625 14.746094 47.277344 14.199219 47.523438 13.800781 C 47.988281 13.058594 48.582031 11.820312 48.582031 11.820312 Z M 48.582031 11.820312 " fill-opacity="1" fill-rule="nonzero"/><path fill="#4c98cd" d="M 53.367188 5.488281 C 53.113281 4.320312 52.789062 4.144531 52.789062 4.144531 C 52.789062 4.144531 52.6875 4.109375 52.425781 4.171875 C 52.203125 4.226562 51.863281 4.347656 51.367188 4.621094 C 50.238281 5.25 49.753906 6.246094 49.425781 6.933594 C 49.167969 7.472656 48.875 8.378906 48.671875 9.332031 L 48.671875 9.3125 C 48.671875 9.3125 48.539062 9.351562 48.351562 9.429688 C 48.007812 9.566406 47.492188 9.828125 47.320312 10.203125 C 47.027344 10.832031 46.855469 11.53125 46.851562 12.441406 C 46.851562 12.929688 47.121094 12.328125 47.3125 11.960938 C 47.648438 11.320312 47.90625 11.238281 48.433594 11.167969 L 49.351562 11.5625 L 50.261719 11.960938 C 50.558594 12.390625 50.664062 12.628906 50.394531 13.296875 C 50.238281 13.679688 49.957031 14.273438 50.328125 13.949219 C 51.03125 13.339844 51.457031 12.753906 51.75 12.125 C 51.984375 11.617188 51.644531 10.796875 51.554688 10.597656 L 51.535156 10.554688 C 52.15625 9.746094 52.441406 9.277344 52.871094 8.429688 C 53.1875 7.734375 53.632812 6.722656 53.367188 5.488281 Z M 50.261719 7.355469 C 50.46875 6.90625 51.011719 6.707031 51.472656 6.90625 C 51.671875 6.992188 51.824219 7.140625 51.917969 7.3125 C 52.039062 7.546875 52.054688 7.828125 51.9375 8.085938 C 51.730469 8.53125 51.1875 8.734375 50.722656 8.53125 C 50.71875 8.53125 50.714844 8.527344 50.707031 8.527344 C 50.257812 8.320312 50.054688 7.800781 50.261719 7.355469 Z M 50.261719 7.355469 " fill-opacity="1" fill-rule="evenodd"/><g clip-path="url(#920af1a354)"><path fill="#ffffff" d="M 5.695312 0 L 2.160156 0 L 2.160156 15.976562 C 2.160156 17.957031 3.601562 19.527344 5.695312 19.527344 Z M 5.695312 0 " fill-opacity="1" fill-rule="nonzero"/></g><g clip-path="url(#5175505ac8)"><path fill="#ffffff" d="M 14.546875 19.527344 C 10.636719 19.527344 7.464844 16.347656 7.464844 12.425781 C 7.464844 8.503906 10.636719 5.324219 14.546875 5.324219 C 15.835938 5.324219 17.042969 5.671875 18.085938 6.277344 L 18.085938 5.53125 L 21.613281 5.53125 L 21.613281 19.527344 L 19.058594 19.527344 C 18.570312 19.527344 18.039062 19.238281 18.085938 18.75 L 18.085938 18.578125 C 16.8125 19.257812 16.019531 19.480469 14.546875 19.527344 Z M 14.546875 15.820312 C 16.414062 15.820312 17.929688 14.300781 17.929688 12.425781 C 17.929688 10.550781 16.414062 9.03125 14.546875 9.03125 C 12.675781 9.03125 11.160156 10.550781 11.160156 12.425781 C 11.160156 14.300781 12.675781 15.820312 14.546875 15.820312 Z M 14.546875 15.820312 " fill-opacity="1" fill-rule="evenodd"/></g><g clip-path="url(#775a8b81c7)"><path fill="#ffffff" d="M 26.917969 0 L 23.382812 0 L 23.382812 15.980469 C 23.382812 17.90625 24.871094 19.527344 26.917969 19.527344 L 26.917969 18.597656 C 27.519531 18.902344 28.007812 19.117188 28.511719 19.261719 C 28.652344 19.300781 28.796875 19.335938 28.941406 19.367188 C 29.382812 19.457031 29.863281 19.507812 30.457031 19.527344 C 34.363281 19.527344 37.53125 16.417969 37.53125 12.582031 C 37.53125 8.75 34.363281 5.640625 30.457031 5.640625 C 30.105469 5.648438 29.792969 5.667969 29.5 5.703125 C 29.191406 5.746094 28.890625 5.804688 28.59375 5.882812 C 28.078125 6.03125 27.566406 6.25 26.917969 6.570312 Z M 30.457031 15.90625 C 32.324219 15.90625 33.839844 14.417969 33.839844 12.582031 C 33.839844 10.75 32.324219 9.261719 30.457031 9.261719 C 28.589844 9.261719 27.074219 10.75 27.074219 12.582031 C 27.074219 14.417969 28.589844 15.90625 30.457031 15.90625 Z M 30.457031 15.90625 " fill-opacity="1" fill-rule="evenodd"/></g><g clip-path="url(#a5bdeb8411)"><path fill="#ffffff" d="M 58.753906 0 L 55.21875 0 L 55.21875 15.976562 C 55.21875 17.957031 56.65625 19.527344 58.753906 19.527344 Z M 58.753906 0 " fill-opacity="1" fill-rule="nonzero"/></g><g clip-path="url(#d01e4473a4)"><path fill="#ffffff" d="M 67.804688 19.527344 C 70.179688 19.527344 72.285156 18.421875 73.617188 16.707031 L 70.089844 14.992188 C 69.476562 15.507812 68.679688 15.820312 67.804688 15.820312 C 66.875 15.820312 66.027344 15.464844 65.402344 14.886719 L 71.261719 12.859375 L 73.34375 12.066406 C 74.324219 11.691406 74.949219 10.6875 74.546875 9.734375 C 73.460938 7.148438 70.851562 5.324219 67.804688 5.324219 C 63.785156 5.324219 60.523438 8.503906 60.523438 12.425781 C 60.523438 16.347656 63.785156 19.527344 67.804688 19.527344 Z M 69.59375 9.511719 L 64.628906 11.035156 C 65.171875 9.851562 66.390625 9.03125 67.804688 9.03125 C 68.460938 9.03125 69.070312 9.207031 69.59375 9.511719 Z M 69.59375 9.511719 " fill-opacity="1" fill-rule="evenodd"/></g><g clip-path="url(#15ed4e8b43)"><path fill="#ffffff" d="M 83.519531 19.527344 C 79.609375 19.527344 76.441406 16.347656 76.441406 12.425781 C 76.441406 8.503906 79.609375 5.324219 83.519531 5.324219 C 84.808594 5.324219 86.019531 5.671875 87.058594 6.277344 L 87.058594 5.53125 L 90.589844 5.53125 L 90.589844 19.527344 L 88.035156 19.527344 C 87.542969 19.527344 87.011719 19.238281 87.058594 18.75 L 87.058594 18.578125 C 85.789062 19.257812 84.996094 19.480469 83.519531 19.527344 Z M 83.519531 15.820312 C 85.390625 15.820312 86.90625 14.300781 86.90625 12.425781 C 86.90625 10.550781 85.390625 9.03125 83.519531 9.03125 C 81.648438 9.03125 80.132812 10.550781 80.132812 12.425781 C 80.132812 14.300781 81.648438 15.820312 83.519531 15.820312 Z M 83.519531 15.820312 " fill-opacity="1" fill-rule="evenodd"/></g><g clip-path="url(#0b9186a38e)"><path fill="#ffffff" d="M 92.355469 5.511719 L 95.894531 5.511719 L 95.894531 7.320312 C 97.535156 5.582031 99.5625 4.703125 101.199219 5.816406 L 101.199219 8.964844 C 98.6875 8.152344 97.59375 8.882812 95.894531 10.425781 L 95.894531 16.972656 C 95.894531 18.394531 94.425781 19.523438 92.355469 19.523438 Z M 92.355469 5.511719 " fill-opacity="1" fill-rule="nonzero"/></g><g clip-path="url(#75e738a34d)"><path fill="#ffffff" d="M 110.875 5.324219 C 114.550781 5.324219 117.117188 8.503906 117.117188 12.425781 L 117.117188 19.527344 C 115.144531 19.527344 113.371094 18.414062 113.371094 16.976562 L 113.371094 12.648438 C 113.371094 10.773438 111.449219 9.542969 109.691406 9.542969 C 107.933594 9.542969 106.507812 10.660156 106.507812 12.535156 L 106.507812 19.527344 C 104.53125 19.527344 102.96875 18.386719 102.96875 16.945312 L 102.96875 5.324219 L 106.507812 5.324219 L 106.507812 7.433594 C 107.53125 6.085938 108.890625 5.324219 110.875 5.324219 Z M 110.875 5.324219 " fill-opacity="1" fill-rule="nonzero"/></g><path fill="#4c98cd" d="M 52.308594 3.871094 C 51.453125 1.902344 49.160156 0 46.070312 0 C 42.265625 -0.0507812 39.226562 3.207031 39.382812 6.554688 L 43.871094 6.554688 C 43.777344 4.019531 48.152344 3.464844 48.289062 6.554688 L 48.351562 9.429688 C 48.894531 6.148438 49.628906 4.785156 52.308594 3.871094 Z M 52.308594 3.871094 " fill-opacity="1" fill-rule="evenodd"/><path fill="#4c98cd" d="M 46.203125 15.152344 L 43.871094 15.171875 L 42.34375 16.664062 C 43.453125 17.996094 45.011719 17.285156 46.203125 15.152344 Z M 46.203125 15.152344 " fill-opacity="1" fill-rule="nonzero"/><g clip-path="url(#289bc33fd0)"><path fill="#4c98cd" d="M 52.34375 19.527344 L 52.34375 15.171875 L 48.25 15.171875 C 45.613281 20.152344 42.140625 19.441406 41.667969 17.242188 L 40.875 17.992188 C 40.875 17.996094 40.875 17.996094 40.875 17.996094 L 40.875 17.992188 L 40.320312 18.53125 L 39.300781 19.527344 Z M 52.34375 19.527344 " fill-opacity="1" fill-rule="evenodd"/></g><path fill="#4c98cd" d="M 48.582031 11.820312 L 49.640625 12.277344 C 49.46875 12.671875 48.292969 14.472656 47.835938 15.171875 C 47.722656 15.347656 47.652344 15.453125 47.652344 15.453125 C 47.652344 15.453125 46.972656 16.648438 45.875 17.71875 C 44.773438 18.792969 42.929688 18.835938 42.285156 17.96875 C 42.042969 17.644531 41.964844 17.394531 41.945312 17.050781 C 41.941406 16.921875 41.941406 16.773438 41.945312 16.605469 C 41.976562 16.113281 42.15625 15.367188 42.15625 15.367188 L 42.367188 14.667969 L 42.15625 15.90625 C 42.15625 15.90625 42.09375 16.414062 42.15625 16.730469 C 42.164062 16.761719 42.171875 16.792969 42.179688 16.824219 C 42.5 17.957031 44.214844 17.746094 44.902344 17.226562 C 45.445312 16.8125 46.171875 15.824219 46.171875 15.824219 C 46.171875 15.824219 46.363281 15.542969 46.617188 15.171875 C 46.90625 14.746094 47.277344 14.199219 47.523438 13.800781 C 47.988281 13.058594 48.582031 11.820312 48.582031 11.820312 Z M 48.582031 11.820312 " fill-opacity="1" fill-rule="nonzero"/><path fill="#4c98cd" d="M 53.367188 5.488281 C 53.113281 4.320312 52.789062 4.144531 52.789062 4.144531 C 52.789062 4.144531 52.6875 4.109375 52.425781 4.171875 C 52.203125 4.226562 51.863281 4.347656 51.367188 4.621094 C 50.238281 5.25 49.753906 6.246094 49.425781 6.933594 C 49.167969 7.472656 48.875 8.378906 48.671875 9.332031 L 48.671875 9.3125 C 48.671875 9.3125 48.539062 9.351562 48.351562 9.429688 C 48.007812 9.566406 47.492188 9.828125 47.320312 10.203125 C 47.027344 10.832031 46.855469 11.53125 46.851562 12.441406 C 46.851562 12.929688 47.121094 12.328125 47.3125 11.960938 C 47.648438 11.320312 47.90625 11.238281 48.433594 11.167969 L 49.351562 11.5625 L 50.261719 11.960938 C 50.558594 12.390625 50.664062 12.628906 50.394531 13.296875 C 50.238281 13.679688 49.957031 14.273438 50.328125 13.949219 C 51.03125 13.339844 51.457031 12.753906 51.75 12.125 C 51.984375 11.617188 51.644531 10.796875 51.554688 10.597656 L 51.535156 10.554688 C 52.15625 9.746094 52.441406 9.277344 52.871094 8.429688 C 53.1875 7.734375 53.632812 6.722656 53.367188 5.488281 Z M 50.261719 7.355469 C 50.46875 6.90625 51.011719 6.707031 51.472656 6.90625 C 51.671875 6.992188 51.824219 7.140625 51.917969 7.3125 C 52.039062 7.546875 52.054688 7.828125 51.9375 8.085938 C 51.730469 8.53125 51.1875 8.734375 50.722656 8.53125 C 50.71875 8.53125 50.714844 8.527344 50.707031 8.527344 C 50.257812 8.320312 50.054688 7.800781 50.261719 7.355469 Z M 50.261719 7.355469 " fill-opacity="1" fill-rule="evenodd"/></svg>