<svg xmlns="http://www.w3.org/2000/svg" xmlns:xlink="http://www.w3.org/1999/xlink" width="160" zoomAndPan="magnify" viewBox="0 0 120 20.25" height="27" preserveAspectRatio="xMidYMid meet" version="1.0"><defs><clipPath id="2487300d42"><path d="M 2.160156 0 L 6 0 L 6 19.503906 L 2.160156 19.503906 Z M 2.160156 0 " clip-rule="nonzero"/></clipPath><clipPath id="b37234a033"><path d="M 7 5 L 22 5 L 22 19.503906 L 7 19.503906 Z M 7 5 " clip-rule="nonzero"/></clipPath><clipPath id="5830e2895d"><path d="M 23 0 L 38 0 L 38 19.503906 L 23 19.503906 Z M 23 0 " clip-rule="nonzero"/></clipPath><clipPath id="06fb5751b8"><path d="M 55 0 L 59 0 L 59 19.503906 L 55 19.503906 Z M 55 0 " clip-rule="nonzero"/></clipPath><clipPath id="6886ed91a7"><path d="M 60 5 L 75 5 L 75 19.503906 L 60 19.503906 Z M 60 5 " clip-rule="nonzero"/></clipPath><clipPath id="e815db1229"><path d="M 76 5 L 91 5 L 91 19.503906 L 76 19.503906 Z M 76 5 " clip-rule="nonzero"/></clipPath><clipPath id="f91bb3844f"><path d="M 92 5 L 102 5 L 102 19.503906 L 92 19.503906 Z M 92 5 " clip-rule="nonzero"/></clipPath><clipPath id="3a22e129c8"><path d="M 103 5 L 117.132812 5 L 117.132812 19.503906 L 103 19.503906 Z M 103 5 " clip-rule="nonzero"/></clipPath><clipPath id="7dfcdcd88a"><path d="M 39 15 L 53 15 L 53 19.503906 L 39 19.503906 Z M 39 15 " clip-rule="nonzero"/></clipPath><clipPath id="9ae7fe2664"><path d="M 2.160156 0 L 6 0 L 6 19.503906 L 2.160156 19.503906 Z M 2.160156 0 " clip-rule="nonzero"/></clipPath><clipPath id="f66117b4bd"><path d="M 7 5 L 22 5 L 22 19.503906 L 7 19.503906 Z M 7 5 " clip-rule="nonzero"/></clipPath><clipPath id="c512ac4802"><path d="M 23 0 L 38 0 L 38 19.503906 L 23 19.503906 Z M 23 0 " clip-rule="nonzero"/></clipPath><clipPath id="db48f884a0"><path d="M 55 0 L 59 0 L 59 19.503906 L 55 19.503906 Z M 55 0 " clip-rule="nonzero"/></clipPath><clipPath id="9fc46855fa"><path d="M 60 5 L 75 5 L 75 19.503906 L 60 19.503906 Z M 60 5 " clip-rule="nonzero"/></clipPath><clipPath id="0546535536"><path d="M 76 5 L 91 5 L 91 19.503906 L 76 19.503906 Z M 76 5 " clip-rule="nonzero"/></clipPath><clipPath id="b1e5681105"><path d="M 92 5 L 102 5 L 102 19.503906 L 92 19.503906 Z M 92 5 " clip-rule="nonzero"/></clipPath><clipPath id="8c16e76068"><path d="M 103 5 L 117.132812 5 L 117.132812 19.503906 L 103 19.503906 Z M 103 5 " clip-rule="nonzero"/></clipPath><clipPath id="751ddfb19e"><path d="M 39 15 L 53 15 L 53 19.503906 L 39 19.503906 Z M 39 15 " clip-rule="nonzero"/></clipPath></defs><g clip-path="url(#2487300d42)"><path fill="#712682" d="M 5.707031 0 L 2.160156 0 L 2.160156 15.960938 C 2.160156 17.9375 3.605469 19.503906 5.707031 19.503906 Z M 5.707031 0 " fill-opacity="1" fill-rule="nonzero"/></g><g clip-path="url(#b37234a033)"><path fill="#712682" d="M 14.578125 19.503906 C 10.65625 19.503906 7.480469 16.328125 7.480469 12.410156 C 7.480469 8.496094 10.65625 5.320312 14.578125 5.320312 C 15.871094 5.320312 17.082031 5.664062 18.125 6.269531 L 18.125 5.523438 L 21.664062 5.523438 L 21.664062 19.503906 L 19.101562 19.503906 C 18.609375 19.503906 18.078125 19.21875 18.125 18.726562 L 18.125 18.554688 C 16.851562 19.234375 16.054688 19.457031 14.578125 19.503906 Z M 14.578125 15.804688 C 16.453125 15.804688 17.972656 14.285156 17.972656 12.410156 C 17.972656 10.539062 16.453125 9.019531 14.578125 9.019531 C 12.703125 9.019531 11.183594 10.539062 11.183594 12.410156 C 11.183594 14.285156 12.703125 15.804688 14.578125 15.804688 Z M 14.578125 15.804688 " fill-opacity="1" fill-rule="evenodd"/></g><g clip-path="url(#5830e2895d)"><path fill="#712682" d="M 26.984375 0 L 23.4375 0 L 23.4375 15.960938 C 23.4375 17.886719 24.925781 19.503906 26.984375 19.503906 L 26.984375 18.578125 C 27.585938 18.882812 28.074219 19.09375 28.578125 19.238281 C 28.71875 19.277344 28.863281 19.3125 29.007812 19.34375 C 29.453125 19.4375 29.933594 19.484375 30.527344 19.503906 C 34.445312 19.503906 37.621094 16.398438 37.621094 12.570312 C 37.621094 8.738281 34.445312 5.632812 30.527344 5.632812 C 30.175781 5.640625 29.863281 5.660156 29.570312 5.695312 C 29.261719 5.738281 28.957031 5.796875 28.660156 5.878906 C 28.144531 6.023438 27.628906 6.242188 26.984375 6.5625 Z M 30.527344 15.886719 C 32.402344 15.886719 33.921875 14.402344 33.921875 12.570312 C 33.921875 10.738281 32.402344 9.253906 30.527344 9.253906 C 28.65625 9.253906 27.136719 10.738281 27.136719 12.570312 C 27.136719 14.402344 28.65625 15.886719 30.527344 15.886719 Z M 30.527344 15.886719 " fill-opacity="1" fill-rule="evenodd"/></g><g clip-path="url(#06fb5751b8)"><path fill="#712682" d="M 58.898438 0 L 55.351562 0 L 55.351562 15.960938 C 55.351562 17.9375 56.796875 19.503906 58.898438 19.503906 Z M 58.898438 0 " fill-opacity="1" fill-rule="nonzero"/></g><g clip-path="url(#6886ed91a7)"><path fill="#712682" d="M 67.972656 19.503906 C 70.351562 19.503906 72.464844 18.398438 73.800781 16.6875 L 70.261719 14.972656 C 69.648438 15.492188 68.847656 15.804688 67.972656 15.804688 C 67.039062 15.804688 66.191406 15.449219 65.566406 14.867188 L 71.4375 12.84375 L 73.527344 12.050781 C 74.511719 11.679688 75.136719 10.675781 74.734375 9.722656 C 73.644531 7.140625 71.027344 5.320312 67.972656 5.320312 C 63.941406 5.320312 60.671875 8.496094 60.671875 12.410156 C 60.671875 16.328125 63.941406 19.503906 67.972656 19.503906 Z M 69.765625 9.5 L 64.785156 11.023438 C 65.332031 9.84375 66.554688 9.019531 67.972656 9.019531 C 68.628906 9.019531 69.242188 9.195312 69.765625 9.5 Z M 69.765625 9.5 " fill-opacity="1" fill-rule="evenodd"/></g><g clip-path="url(#e815db1229)"><path fill="#712682" d="M 83.726562 19.503906 C 79.808594 19.503906 76.628906 16.328125 76.628906 12.410156 C 76.628906 8.496094 79.808594 5.320312 83.726562 5.320312 C 85.019531 5.320312 86.234375 5.664062 87.277344 6.269531 L 87.277344 5.523438 L 90.816406 5.523438 L 90.816406 19.503906 L 88.253906 19.503906 C 87.761719 19.503906 87.230469 19.21875 87.277344 18.726562 L 87.277344 18.554688 C 86 19.234375 85.207031 19.457031 83.726562 19.503906 Z M 83.726562 15.804688 C 85.601562 15.804688 87.121094 14.285156 87.121094 12.410156 C 87.121094 10.539062 85.601562 9.019531 83.726562 9.019531 C 81.851562 9.019531 80.332031 10.539062 80.332031 12.410156 C 80.332031 14.285156 81.851562 15.804688 83.726562 15.804688 Z M 83.726562 15.804688 " fill-opacity="1" fill-rule="evenodd"/></g><g clip-path="url(#f91bb3844f)"><path fill="#712682" d="M 92.585938 5.507812 L 96.132812 5.507812 L 96.132812 7.3125 C 97.78125 5.574219 99.8125 4.695312 101.453125 5.8125 L 101.453125 8.953125 C 98.9375 8.144531 97.839844 8.871094 96.132812 10.414062 L 96.132812 16.953125 C 96.132812 18.371094 94.664062 19.5 92.585938 19.5 Z M 92.585938 5.507812 " fill-opacity="1" fill-rule="nonzero"/></g><g clip-path="url(#3a22e129c8)"><path fill="#712682" d="M 111.152344 5.320312 C 114.839844 5.320312 117.410156 8.496094 117.410156 12.410156 L 117.410156 19.503906 C 115.433594 19.503906 113.65625 18.394531 113.65625 16.957031 L 113.65625 12.632812 C 113.65625 10.761719 111.726562 9.53125 109.964844 9.53125 C 108.203125 9.53125 106.773438 10.648438 106.773438 12.523438 L 106.773438 19.503906 C 104.792969 19.503906 103.226562 18.363281 103.226562 16.925781 L 103.226562 5.320312 L 106.773438 5.320312 L 106.773438 7.425781 C 107.800781 6.078125 109.164062 5.320312 111.152344 5.320312 Z M 111.152344 5.320312 " fill-opacity="1" fill-rule="nonzero"/></g><path fill="#4c98cd" d="M 52.4375 3.867188 C 51.578125 1.898438 49.28125 0 46.179688 0 C 42.371094 -0.0507812 39.320312 3.203125 39.476562 6.546875 L 43.976562 6.546875 C 43.886719 4.015625 48.269531 3.460938 48.410156 6.546875 L 48.46875 9.417969 C 49.011719 6.140625 49.75 4.78125 52.4375 3.867188 Z M 52.4375 3.867188 " fill-opacity="1" fill-rule="evenodd"/><path fill="#4c98cd" d="M 46.316406 15.136719 L 43.976562 15.15625 L 42.445312 16.644531 C 43.558594 17.976562 45.121094 17.265625 46.316406 15.136719 Z M 46.316406 15.136719 " fill-opacity="1" fill-rule="nonzero"/><g clip-path="url(#7dfcdcd88a)"><path fill="#4c98cd" d="M 52.472656 19.503906 L 52.472656 15.15625 L 48.367188 15.15625 C 45.722656 20.128906 42.242188 19.417969 41.769531 17.222656 L 40.972656 17.972656 C 40.972656 17.976562 40.972656 17.976562 40.972656 17.976562 L 40.972656 17.972656 L 40.417969 18.507812 L 39.394531 19.503906 Z M 52.472656 19.503906 " fill-opacity="1" fill-rule="evenodd"/></g><path fill="#4c98cd" d="M 48.699219 11.808594 L 49.761719 12.265625 C 49.589844 12.65625 48.414062 14.457031 47.953125 15.15625 C 47.835938 15.328125 47.765625 15.433594 47.765625 15.433594 C 47.765625 15.433594 47.089844 16.628906 45.988281 17.699219 C 44.882812 18.769531 43.03125 18.8125 42.386719 17.945312 C 42.144531 17.625 42.066406 17.371094 42.050781 17.03125 C 42.042969 16.902344 42.042969 16.753906 42.046875 16.585938 C 42.078125 16.09375 42.257812 15.351562 42.257812 15.351562 L 42.46875 14.652344 L 42.257812 15.886719 C 42.257812 15.886719 42.195312 16.394531 42.257812 16.710938 C 42.265625 16.742188 42.273438 16.773438 42.28125 16.804688 C 42.605469 17.9375 44.320312 17.726562 45.011719 17.207031 C 45.554688 16.792969 46.285156 15.804688 46.285156 15.804688 C 46.285156 15.804688 46.476562 15.527344 46.730469 15.15625 C 47.019531 14.730469 47.390625 14.179688 47.640625 13.785156 C 48.105469 13.042969 48.699219 11.808594 48.699219 11.808594 Z M 48.699219 11.808594 " fill-opacity="1" fill-rule="nonzero"/><path fill="#4c98cd" d="M 53.496094 5.484375 C 53.246094 4.316406 52.917969 4.140625 52.917969 4.140625 C 52.917969 4.140625 52.816406 4.105469 52.554688 4.167969 C 52.332031 4.21875 51.988281 4.34375 51.492188 4.617188 C 50.359375 5.242188 49.875 6.238281 49.546875 6.925781 C 49.289062 7.464844 48.992188 8.367188 48.789062 9.320312 L 48.792969 9.304688 C 48.792969 9.304688 48.65625 9.34375 48.46875 9.417969 C 48.125 9.554688 47.609375 9.816406 47.433594 10.191406 C 47.144531 10.816406 46.972656 11.515625 46.96875 12.425781 C 46.964844 12.914062 47.238281 12.3125 47.429688 11.949219 C 47.765625 11.308594 48.023438 11.226562 48.550781 11.15625 L 49.46875 11.546875 L 50.382812 11.949219 C 50.683594 12.375 50.789062 12.617188 50.519531 13.28125 C 50.363281 13.664062 50.078125 14.257812 50.453125 13.933594 C 51.15625 13.324219 51.582031 12.738281 51.875 12.113281 C 52.109375 11.605469 51.769531 10.785156 51.679688 10.585938 L 51.660156 10.542969 C 52.285156 9.734375 52.570312 9.265625 53.003906 8.417969 C 53.316406 7.726562 53.765625 6.714844 53.496094 5.484375 Z M 50.382812 7.347656 C 50.59375 6.898438 51.136719 6.699219 51.601562 6.898438 C 51.800781 6.984375 51.949219 7.132812 52.042969 7.304688 C 52.167969 7.535156 52.183594 7.820312 52.0625 8.074219 C 51.855469 8.523438 51.3125 8.722656 50.847656 8.523438 C 50.84375 8.519531 50.835938 8.519531 50.832031 8.515625 C 50.378906 8.3125 50.179688 7.789062 50.382812 7.347656 Z M 50.382812 7.347656 " fill-opacity="1" fill-rule="evenodd"/><g clip-path="url(#9ae7fe2664)"><path fill="#712682" d="M 5.707031 0 L 2.160156 0 L 2.160156 15.960938 C 2.160156 17.9375 3.605469 19.503906 5.707031 19.503906 Z M 5.707031 0 " fill-opacity="1" fill-rule="nonzero"/></g><g clip-path="url(#f66117b4bd)"><path fill="#712682" d="M 14.578125 19.503906 C 10.65625 19.503906 7.480469 16.328125 7.480469 12.410156 C 7.480469 8.496094 10.65625 5.320312 14.578125 5.320312 C 15.871094 5.320312 17.082031 5.664062 18.125 6.269531 L 18.125 5.523438 L 21.664062 5.523438 L 21.664062 19.503906 L 19.101562 19.503906 C 18.609375 19.503906 18.078125 19.21875 18.125 18.726562 L 18.125 18.554688 C 16.851562 19.234375 16.054688 19.457031 14.578125 19.503906 Z M 14.578125 15.804688 C 16.453125 15.804688 17.972656 14.285156 17.972656 12.410156 C 17.972656 10.539062 16.453125 9.019531 14.578125 9.019531 C 12.703125 9.019531 11.183594 10.539062 11.183594 12.410156 C 11.183594 14.285156 12.703125 15.804688 14.578125 15.804688 Z M 14.578125 15.804688 " fill-opacity="1" fill-rule="evenodd"/></g><g clip-path="url(#c512ac4802)"><path fill="#712682" d="M 26.984375 0 L 23.4375 0 L 23.4375 15.960938 C 23.4375 17.886719 24.925781 19.503906 26.984375 19.503906 L 26.984375 18.578125 C 27.585938 18.882812 28.074219 19.09375 28.578125 19.238281 C 28.71875 19.277344 28.863281 19.3125 29.007812 19.34375 C 29.453125 19.4375 29.933594 19.484375 30.527344 19.503906 C 34.445312 19.503906 37.621094 16.398438 37.621094 12.570312 C 37.621094 8.738281 34.445312 5.632812 30.527344 5.632812 C 30.175781 5.640625 29.863281 5.660156 29.570312 5.695312 C 29.261719 5.738281 28.957031 5.796875 28.660156 5.878906 C 28.144531 6.023438 27.628906 6.242188 26.984375 6.5625 Z M 30.527344 15.886719 C 32.402344 15.886719 33.921875 14.402344 33.921875 12.570312 C 33.921875 10.738281 32.402344 9.253906 30.527344 9.253906 C 28.65625 9.253906 27.136719 10.738281 27.136719 12.570312 C 27.136719 14.402344 28.65625 15.886719 30.527344 15.886719 Z M 30.527344 15.886719 " fill-opacity="1" fill-rule="evenodd"/></g><g clip-path="url(#db48f884a0)"><path fill="#712682" d="M 58.898438 0 L 55.351562 0 L 55.351562 15.960938 C 55.351562 17.9375 56.796875 19.503906 58.898438 19.503906 Z M 58.898438 0 " fill-opacity="1" fill-rule="nonzero"/></g><g clip-path="url(#9fc46855fa)"><path fill="#712682" d="M 67.972656 19.503906 C 70.351562 19.503906 72.464844 18.398438 73.800781 16.6875 L 70.261719 14.972656 C 69.648438 15.492188 68.847656 15.804688 67.972656 15.804688 C 67.039062 15.804688 66.191406 15.449219 65.566406 14.867188 L 71.4375 12.84375 L 73.527344 12.050781 C 74.511719 11.679688 75.136719 10.675781 74.734375 9.722656 C 73.644531 7.140625 71.027344 5.320312 67.972656 5.320312 C 63.941406 5.320312 60.671875 8.496094 60.671875 12.410156 C 60.671875 16.328125 63.941406 19.503906 67.972656 19.503906 Z M 69.765625 9.5 L 64.785156 11.023438 C 65.332031 9.84375 66.554688 9.019531 67.972656 9.019531 C 68.628906 9.019531 69.242188 9.195312 69.765625 9.5 Z M 69.765625 9.5 " fill-opacity="1" fill-rule="evenodd"/></g><g clip-path="url(#0546535536)"><path fill="#712682" d="M 83.726562 19.503906 C 79.808594 19.503906 76.628906 16.328125 76.628906 12.410156 C 76.628906 8.496094 79.808594 5.320312 83.726562 5.320312 C 85.019531 5.320312 86.234375 5.664062 87.277344 6.269531 L 87.277344 5.523438 L 90.816406 5.523438 L 90.816406 19.503906 L 88.253906 19.503906 C 87.761719 19.503906 87.230469 19.21875 87.277344 18.726562 L 87.277344 18.554688 C 86 19.234375 85.207031 19.457031 83.726562 19.503906 Z M 83.726562 15.804688 C 85.601562 15.804688 87.121094 14.285156 87.121094 12.410156 C 87.121094 10.539062 85.601562 9.019531 83.726562 9.019531 C 81.851562 9.019531 80.332031 10.539062 80.332031 12.410156 C 80.332031 14.285156 81.851562 15.804688 83.726562 15.804688 Z M 83.726562 15.804688 " fill-opacity="1" fill-rule="evenodd"/></g><g clip-path="url(#b1e5681105)"><path fill="#712682" d="M 92.585938 5.507812 L 96.132812 5.507812 L 96.132812 7.3125 C 97.78125 5.574219 99.8125 4.695312 101.453125 5.8125 L 101.453125 8.953125 C 98.9375 8.144531 97.839844 8.871094 96.132812 10.414062 L 96.132812 16.953125 C 96.132812 18.371094 94.664062 19.5 92.585938 19.5 Z M 92.585938 5.507812 " fill-opacity="1" fill-rule="nonzero"/></g><g clip-path="url(#8c16e76068)"><path fill="#712682" d="M 111.152344 5.320312 C 114.839844 5.320312 117.410156 8.496094 117.410156 12.410156 L 117.410156 19.503906 C 115.433594 19.503906 113.65625 18.394531 113.65625 16.957031 L 113.65625 12.632812 C 113.65625 10.761719 111.726562 9.53125 109.964844 9.53125 C 108.203125 9.53125 106.773438 10.648438 106.773438 12.523438 L 106.773438 19.503906 C 104.792969 19.503906 103.226562 18.363281 103.226562 16.925781 L 103.226562 5.320312 L 106.773438 5.320312 L 106.773438 7.425781 C 107.800781 6.078125 109.164062 5.320312 111.152344 5.320312 Z M 111.152344 5.320312 " fill-opacity="1" fill-rule="nonzero"/></g><path fill="#4c98cd" d="M 52.4375 3.867188 C 51.578125 1.898438 49.28125 0 46.179688 0 C 42.371094 -0.0507812 39.320312 3.203125 39.476562 6.546875 L 43.976562 6.546875 C 43.886719 4.015625 48.269531 3.460938 48.410156 6.546875 L 48.46875 9.417969 C 49.011719 6.140625 49.75 4.78125 52.4375 3.867188 Z M 52.4375 3.867188 " fill-opacity="1" fill-rule="evenodd"/><path fill="#4c98cd" d="M 46.316406 15.136719 L 43.976562 15.15625 L 42.445312 16.644531 C 43.558594 17.976562 45.121094 17.265625 46.316406 15.136719 Z M 46.316406 15.136719 " fill-opacity="1" fill-rule="nonzero"/><g clip-path="url(#751ddfb19e)"><path fill="#4c98cd" d="M 52.472656 19.503906 L 52.472656 15.15625 L 48.367188 15.15625 C 45.722656 20.128906 42.242188 19.417969 41.769531 17.222656 L 40.972656 17.972656 C 40.972656 17.976562 40.972656 17.976562 40.972656 17.976562 L 40.972656 17.972656 L 40.417969 18.507812 L 39.394531 19.503906 Z M 52.472656 19.503906 " fill-opacity="1" fill-rule="evenodd"/></g><path fill="#4c98cd" d="M 48.699219 11.808594 L 49.761719 12.265625 C 49.589844 12.65625 48.414062 14.457031 47.953125 15.15625 C 47.835938 15.328125 47.765625 15.433594 47.765625 15.433594 C 47.765625 15.433594 47.089844 16.628906 45.988281 17.699219 C 44.882812 18.769531 43.03125 18.8125 42.386719 17.945312 C 42.144531 17.625 42.066406 17.371094 42.050781 17.03125 C 42.042969 16.902344 42.042969 16.753906 42.046875 16.585938 C 42.078125 16.09375 42.257812 15.351562 42.257812 15.351562 L 42.46875 14.652344 L 42.257812 15.886719 C 42.257812 15.886719 42.195312 16.394531 42.257812 16.710938 C 42.265625 16.742188 42.273438 16.773438 42.28125 16.804688 C 42.605469 17.9375 44.320312 17.726562 45.011719 17.207031 C 45.554688 16.792969 46.285156 15.804688 46.285156 15.804688 C 46.285156 15.804688 46.476562 15.527344 46.730469 15.15625 C 47.019531 14.730469 47.390625 14.179688 47.640625 13.785156 C 48.105469 13.042969 48.699219 11.808594 48.699219 11.808594 Z M 48.699219 11.808594 " fill-opacity="1" fill-rule="nonzero"/><path fill="#4c98cd" d="M 53.496094 5.484375 C 53.246094 4.316406 52.917969 4.140625 52.917969 4.140625 C 52.917969 4.140625 52.816406 4.105469 52.554688 4.167969 C 52.332031 4.21875 51.988281 4.34375 51.492188 4.617188 C 50.359375 5.242188 49.875 6.238281 49.546875 6.925781 C 49.289062 7.464844 48.992188 8.367188 48.789062 9.320312 L 48.792969 9.304688 C 48.792969 9.304688 48.65625 9.34375 48.46875 9.417969 C 48.125 9.554688 47.609375 9.816406 47.433594 10.191406 C 47.144531 10.816406 46.972656 11.515625 46.96875 12.425781 C 46.964844 12.914062 47.238281 12.3125 47.429688 11.949219 C 47.765625 11.308594 48.023438 11.226562 48.550781 11.15625 L 49.46875 11.546875 L 50.382812 11.949219 C 50.683594 12.375 50.789062 12.617188 50.519531 13.28125 C 50.363281 13.664062 50.078125 14.257812 50.453125 13.933594 C 51.15625 13.324219 51.582031 12.738281 51.875 12.113281 C 52.109375 11.605469 51.769531 10.785156 51.679688 10.585938 L 51.660156 10.542969 C 52.285156 9.734375 52.570312 9.265625 53.003906 8.417969 C 53.316406 7.726562 53.765625 6.714844 53.496094 5.484375 Z M 50.382812 7.347656 C 50.59375 6.898438 51.136719 6.699219 51.601562 6.898438 C 51.800781 6.984375 51.949219 7.132812 52.042969 7.304688 C 52.167969 7.535156 52.183594 7.820312 52.0625 8.074219 C 51.855469 8.523438 51.3125 8.722656 50.847656 8.523438 C 50.84375 8.519531 50.835938 8.519531 50.832031 8.515625 C 50.378906 8.3125 50.179688 7.789062 50.382812 7.347656 Z M 50.382812 7.347656 " fill-opacity="1" fill-rule="evenodd"/></svg>