<svg width="24" height="23" viewBox="0 0 24 23" fill="none" xmlns="http://www.w3.org/2000/svg">
<path d="M17.6729 22.7258L0 22.842V19.1644L10.5833 4.76046H0.633365V0H17.6729V4.04536L7.37564 18.0816L17.6729 17.9654V22.7258Z" fill="url(#paint0_linear_108_103)"/>
<path d="M18.7913 20.4037C18.7913 19.5049 19.0351 18.8738 19.5228 18.5104C20.02 18.147 20.6176 17.9654 21.3157 17.9654C21.9946 17.9654 22.5778 18.147 23.0655 18.5104C23.5627 18.8738 23.8114 19.5049 23.8114 20.4037C23.8114 21.2643 23.5627 21.8858 23.0655 22.2683C22.5778 22.6508 21.9946 22.842 21.3157 22.842C20.6176 22.842 20.02 22.6508 19.5228 22.2683C19.0351 21.8858 18.7913 21.2643 18.7913 20.4037Z" fill="#4C98CD"/>
<defs>
<linearGradient id="paint0_linear_108_103" x1="11.9057" y1="0" x2="11.9057" y2="22.842" gradientUnits="userSpaceOnUse">
<stop stop-color="#712682"/>
<stop offset="1" stop-color="#4C98CD"/>
</linearGradient>
</defs>
</svg>
