<svg width="76" height="32" viewBox="0 0 76 32" fill="none" xmlns="http://www.w3.org/2000/svg">
<path d="M69.8616 31.7908H0V28.1132L10.5833 13.7093H0.633365V8.94884H17.6729V12.9942L7.37564 27.0304H69.8616V31.7908Z" fill="url(#paint0_linear_10_49)"/>
<path d="M23.8622 0V5.25041C23.8622 6.16688 23.8291 7.03919 23.7628 7.86733C23.7076 8.69547 23.6634 9.28069 23.6303 9.62299H23.8953C24.2928 8.98256 24.7621 8.46359 25.3032 8.06608C25.8552 7.66858 26.4625 7.37597 27.1251 7.18825C27.7876 7.00054 28.4998 6.90669 29.2617 6.90669C30.5977 6.90669 31.7626 7.14409 32.7564 7.61889C33.7502 8.08265 34.5231 8.81693 35.0752 9.82174C35.6273 10.8155 35.9033 12.1074 35.9033 13.6974V25.7717H30.8517V14.9562C30.8517 13.6312 30.6088 12.6319 30.1229 11.9583C29.6371 11.2848 28.8862 10.948 27.8704 10.948C26.8545 10.948 26.054 11.1854 25.4688 11.6602C24.8836 12.124 24.4695 12.8141 24.2266 13.7306C23.9837 14.636 23.8622 15.7457 23.8622 17.0597V25.7717H18.8105V0H23.8622Z" fill="#1E1F24"/>
<path d="M53.9014 7.25451V25.7717H50.0257L49.3466 23.4032H49.0816C48.6841 24.0326 48.1872 24.5461 47.5909 24.9436C46.9947 25.3411 46.3377 25.6337 45.62 25.8214C44.9022 26.0091 44.1569 26.103 43.384 26.103C42.0589 26.103 40.9051 25.8711 39.9224 25.4073C38.9396 24.9325 38.1722 24.1982 37.6201 23.2045C37.0791 22.2107 36.8085 20.9188 36.8085 19.3288V7.25451H41.8602V18.07C41.8602 19.395 42.0976 20.3943 42.5724 21.0679C43.0472 21.7414 43.8036 22.0782 44.8415 22.0782C45.8684 22.0782 46.6745 21.8463 47.2597 21.3826C47.8449 20.9078 48.2534 20.2177 48.4853 19.3122C48.7282 18.3957 48.8497 17.2805 48.8497 15.9665V7.25451H53.9014Z" fill="#1E1F24"/>
<path d="M59.9191 0V5.99573C59.9191 6.69137 59.8971 7.38149 59.8529 8.06608C59.8198 8.75068 59.7756 9.28069 59.7204 9.65611H59.9191C60.405 8.89422 61.0675 8.24827 61.9067 7.71826C62.7459 7.17721 63.8335 6.90669 65.1696 6.90669C67.2454 6.90669 68.9293 7.71826 70.2212 9.34142C71.5131 10.9646 72.1591 13.3441 72.1591 16.48C72.1591 18.589 71.8609 20.3612 71.2647 21.7966C70.6684 23.221 69.8347 24.2976 68.7637 25.0264C67.6926 25.7441 66.4504 26.103 65.0371 26.103C63.6789 26.103 62.6078 25.86 61.8239 25.3742C61.0399 24.8884 60.405 24.3418 59.9191 23.7345H59.5713L58.7266 25.7717H54.8675V0H59.9191ZM63.5464 10.948C62.6631 10.948 61.9619 11.1302 61.4429 11.4946C60.924 11.859 60.543 12.4055 60.3001 13.1343C60.0682 13.8631 59.9412 14.7851 59.9191 15.9003V16.4469C59.9191 18.2467 60.1842 19.6269 60.7142 20.5876C61.2442 21.5372 62.2103 22.012 63.6127 22.012C64.6506 22.012 65.4732 21.5316 66.0805 20.571C66.6989 19.6104 67.008 18.2246 67.008 16.4137C67.008 14.6029 66.6989 13.2392 66.0805 12.3227C65.4622 11.4062 64.6175 10.948 63.5464 10.948Z" fill="#1E1F24"/>
<path d="M70.9799 29.4687C70.9799 28.5699 71.2237 27.9388 71.7114 27.5754C72.2086 27.2121 72.8063 27.0304 73.5043 27.0304C74.1832 27.0304 74.7665 27.2121 75.2542 27.5754C75.7514 27.9388 76 28.5699 76 29.4687C76 30.3293 75.7514 30.9508 75.2542 31.3333C74.7665 31.7158 74.1832 31.907 73.5043 31.907C72.8063 31.907 72.2086 31.7158 71.7114 31.3333C71.2237 30.9508 70.9799 30.3293 70.9799 29.4687Z" fill="#4C98CD"/>
<defs>
<linearGradient id="paint0_linear_10_49" x1="38" y1="0" x2="38" y2="31.907" gradientUnits="userSpaceOnUse">
<stop stop-color="#712682"/>
<stop offset="1" stop-color="#4C98CD"/>
</linearGradient>
</defs>
</svg>
